/* XPM */
static char *image_xpm[] = {
/* width height ncolors chars_per_pixel */
"32 27 24 1",
"  c #000000",
". c #333300",
"+ c #00cc00",
"@ c #00cc33",
"# c #003300",
"$ c #00ff33",
"% c #666666",
"& c #99ffcc",
"* c #ffffff",
"= c #99ff99",
"- c #333333",
"; c #999999",
"> c #99cccc",
", c #33cc33",
"' c #ccffff",
") c #66ff99",
"! c #669966",
"~ c #cccccc",
"{ c #66ff66",
"] c #ccffcc",
"^ c #33ff66",
"/ c #99cc99",
"( c #33ff33",
"_ c #999966",
"*************;%-****************",
"***********~ . -~***************",
"***********-- - ****************",
"**********-- - -****************",
"*********~- - --****************",
"*********; - . -****************",
"*********;- - - )=**************",
"*********~ - - -+@+{'***********",
"*********~- - -#@+$@^***********",
"**********%- . -+@+@+)**********",
"***********-- - $@$@$@**********",
"************%- -+@+@+@/*********",
"*************~;!@+$@@+&*********",
"****************+@+@+@/*********",
"****************(@@@$@**********",
"****************+@+@+{**********",
"****************@+$@,]**********",
"****************+@+,>***********",
"****************(,=*************",
"********************************",
"***~***~*****************~******",
"**%%-;;;~***~***~*~***~*~;**~***",
"**_%~*~-%;*-%;~-;;%%*-%%*%~-%;**",
"**~~%%;;*-;-%%;;*%~*;;*-~%;;~%**",
"**;%%%~-%%*-;;~;*;%%*-;%~%~;~%**",
"****~*~*~***~*~***~***~*~*~*~***",
"********************************",
};