/* XPM */
static char *image_xpm[] = {
/* width height ncolors chars_per_pixel */
"16 14 16 1",
"  c #000000",
". c #00cc00",
"+ c #00cc33",
"@ c #00ff33",
"# c #666666",
"$ c #66cc66",
"% c #ffffff",
"& c #66cc99",
"* c #99ff99",
"= c #333333",
"- c #999999",
"; c #cccccc",
"> c #66ff66",
", c #ccffcc",
"' c #99cc99",
") c #33ff33",
"%%%%%%#=%%%%%%%%",
"%%%%%#= %%%%%%%%",
"%%%%;= =%%%%%%%%",
"%%%%; = $'%%%%%%",
"%%%%;= =.+&%%%%%",
"%%%%%-= @+)%%%%%",
"%%%%%%;-.+.,%%%%",
"%%%%%%%%+.)%%%%%",
"%%%%%%%%.+$%%%%%",
"%%%%%%%%>*%%%%%%",
"%%;%%%%%%%%%;%%%",
"%#;-;;;-;-;-;-;%",
"%-#-#-#--------%",
"%%%%%%%%%%%%%%%%",
};