/* XPM */
static char *image_xpm[] = {
/* width height ncolors chars_per_pixel */
"64 55 28 1",
"  c #000000",
". c #333300",
"+ c #00cc00",
"@ c #00cc33",
"# c #003300",
"$ c #00ff33",
"% c #666666",
"& c #33cc66",
"* c #99ffcc",
"= c #66cc66",
"- c #ffffff",
"; c #66cc99",
"> c #99ff99",
", c #333333",
"' c #999999",
") c #cccc99",
"! c #33cc33",
"~ c #336666",
"{ c #666633",
"] c #ccffff",
"^ c #66ff99",
"/ c #cccccc",
"( c #66ff66",
"_ c #ccffcc",
": c #33ff66",
"< c #99cc99",
"[ c #33ff33",
"} c #999966",
"---------------------------/',,,--------------------------------",
"-------------------------/,, . ,/-------------------------------",
"------------------------' , , ,,--------------------------------",
"----------------------/% , , , ,--------------------------------",
"----------------------% , , , ,,--------------------------------",
"---------------------} ,   , . ,/-------------------------------",
"--------------------- , , , , ,,--------------------------------",
"--------------------,, , , , , ,--------------------------------",
"-------------------/, , , , , ,,--------------------------------",
"-------------------' . , , , . ,/-------------------------------",
"-------------------%, , , , , ,,--------------------------------",
"-------------------, , , , , , ,--------------------------------",
"-------------------,, , , , , ,,--------------------------------",
"-------------------, . ,   , . ,+@@^<---------------------------",
"-------------------,, , , , , ,#[@$@$!_-------------------------",
"-------------------% , , , , , ,+@+@+@+(]-----------------------",
"-------------------', , , , , ,#@+$@@+$@:_----------------------",
"-------------------- . , , , . ,+@+@+@+@+&----------------------",
"--------------------' , , , , ,#$@@@$@@@$@>---------------------",
"--------------------/, , , , , ,+@+@+@+@+@+_--------------------",
"---------------------', , , , ,#@+$@@+$@@+$&--------------------",
"----------------------%,   , . ,+@+@+@+@+@+@/-------------------",
"-----------------------%, , , ,#[@$@$@@@$@$@*-------------------",
"------------------------', , , ,+@+@+@+@+@+@=-------------------",
"-------------------------/',, ,#@+$@@+$@@+$@(-------------------",
"----------------------------'',~+@+@+@+@+@+@@-------------------",
"-------------------------------][@@@$@@@$@@@:-------------------",
"--------------------------------+@+@+@+@+@+@&-------------------",
"--------------------------------@+$@@+$@@+$@>-------------------",
"--------------------------------+@+@+@+@+@+@<-------------------",
"-------------------------------][@$@$@@@$@$@--------------------",
"--------------------------------@@+@+@+@+@+>--------------------",
"--------------------------------@+$@@+$@@+:---------------------",
"--------------------------------+@+@+@+@+@<---------------------",
"-------------------------------][@@@$@@@$>----------------------",
"--------------------------------+@+@+@+@;-----------------------",
"--------------------------------@+$@@+:_------------------------",
"--------------------------------+@+@@>]-------------------------",
"--------------------------------^=>_----------------------------",
"----------------------------------------------------------------",
"----------------------------------------------------------------",
"----------------------------------------------------------------",
"------/}'/---''----------------------------------/%/------------",
"----/% , ,,/-%,----------------------------------/ /------------",
"----' '--'%--,%///-----///---//-//---'/----///---//--/////------",
"----'.%-/----, , .{---%, .%--% , '-' . ,/-%, ,,--' /-% , .%-----",
"-----,, ,{/--,,'-','-','-','-%,'--/ '//%-',%-',%-','-,,)-,,/----",
"------''%, /-{,---,,-% %%% %-% ---%,/----%.---,,-/ /-%,--' /----",
"-----/---/,%-,%---%,-%,%'%''-%,---'.-----,,---%,-','-,,--',/----",
"----%,%/'% '-, //% '-' %//'--% ---',,/''-' %/' %-' /-%,--' /----",
"-----%, ,.'--,, , %---' , %--%,----', ,,--' , %--','-{,--',/----",
"------//'-----/-/-------'/----/-----///-----'/----/---/---/-----",
"----------------------------------------------------------------",
"----------------------------------------------------------------",
"----------------------------------------------------------------",
};